<svg width="24" height="24" viewBox="0 0 24 24" fill="none" xmlns="http://www.w3.org/2000/svg">
<path d="M18.3269 7.28589H10.2829C9.77069 7.28774 9.28017 7.49293 8.91919 7.85635C8.55821 8.21977 8.35633 8.71166 8.35792 9.22389V19.3119C8.35792 20.3819 9.21992 21.2499 10.2829 21.2499H18.3269C18.8391 21.248 19.3297 21.0428 19.6906 20.6794C20.0516 20.316 20.2535 19.8241 20.2519 19.3119V9.22389C20.2519 8.15389 19.3899 7.28589 18.3269 7.28589Z" stroke="black" stroke-width="1.5" stroke-linecap="round" stroke-linejoin="round"/>
<path d="M15.642 7.286V4.688C15.642 4.174 15.439 3.681 15.078 3.318C14.8999 3.1382 14.6879 2.99545 14.4543 2.89796C14.2207 2.80048 13.9702 2.75019 13.717 2.75H5.67305C5.16305 2.75 4.67305 2.954 4.31305 3.318C3.95131 3.68222 3.74821 4.17467 3.74805 4.688V14.776C3.74805 15.29 3.95105 15.783 4.31205 16.146C4.67305 16.51 5.16205 16.714 5.67305 16.714H8.35805" stroke="black" stroke-width="1.5" stroke-linecap="round" stroke-linejoin="round"/>
</svg>
