<svg width="24" height="25" viewBox="0 0 24 25" fill="none" xmlns="http://www.w3.org/2000/svg">
<path d="M8.75 13.5C8.75 13.3011 8.67098 13.1103 8.53033 12.9697C8.38968 12.829 8.19891 12.75 8 12.75C7.80109 12.75 7.61032 12.829 7.46967 12.9697C7.32902 13.1103 7.25 13.3011 7.25 13.5V17.5C7.25 17.6989 7.32902 17.8897 7.46967 18.0303C7.61032 18.171 7.80109 18.25 8 18.25C8.19891 18.25 8.38968 18.171 8.53033 18.0303C8.67098 17.8897 8.75 17.6989 8.75 17.5V13.5ZM16 12.75C16.1989 12.75 16.3897 12.829 16.5303 12.9697C16.671 13.1103 16.75 13.3011 16.75 13.5V17.5C16.75 17.6989 16.671 17.8897 16.5303 18.0303C16.3897 18.171 16.1989 18.25 16 18.25C15.8011 18.25 15.6103 18.171 15.4697 18.0303C15.329 17.8897 15.25 17.6989 15.25 17.5V13.5C15.25 13.3011 15.329 13.1103 15.4697 12.9697C15.6103 12.829 15.8011 12.75 16 12.75ZM12.75 13.5C12.75 13.3011 12.671 13.1103 12.5303 12.9697C12.3897 12.829 12.1989 12.75 12 12.75C11.8011 12.75 11.6103 12.829 11.4697 12.9697C11.329 13.1103 11.25 13.3011 11.25 13.5V17.5C11.25 17.6989 11.329 17.8897 11.4697 18.0303C11.6103 18.171 11.8011 18.25 12 18.25C12.1989 18.25 12.3897 18.171 12.5303 18.0303C12.671 17.8897 12.75 17.6989 12.75 17.5V13.5Z" fill="black"/>
<path fill-rule="evenodd" clip-rule="evenodd" d="M17.274 3.973C16.798 3.787 16.265 3.756 15.582 3.751C15.4402 3.45147 15.2162 3.19838 14.9361 3.02117C14.656 2.84396 14.3314 2.74993 14 2.75H10C9.66869 2.74984 9.34414 2.84373 9.06409 3.02075C8.78404 3.19777 8.55999 3.45066 8.418 3.75C7.734 3.756 7.202 3.787 6.726 3.973C6.15777 4.19527 5.66359 4.57301 5.3 5.063C4.933 5.556 4.76 6.19 4.524 7.061L3.896 9.364C3.50223 9.5619 3.15728 9.84469 2.886 10.192C2.264 10.989 2.154 11.938 2.265 13.026C2.372 14.082 2.705 15.412 3.121 17.076L3.147 17.183C3.411 18.235 3.624 19.09 3.878 19.757C4.143 20.453 4.48 21.023 5.034 21.456C5.589 21.889 6.224 22.076 6.963 22.166C7.671 22.25 8.553 22.25 9.638 22.25H14.362C15.447 22.25 16.328 22.25 17.037 22.165C17.777 22.077 18.411 21.889 18.965 21.455C19.52 21.023 19.856 20.453 20.121 19.757C20.376 19.09 20.589 18.235 20.852 17.182L20.879 17.077C21.295 15.412 21.627 14.082 21.735 13.027C21.845 11.937 21.735 10.989 21.113 10.192C20.842 9.84481 20.4974 9.56202 20.104 9.364L19.476 7.061C19.239 6.19 19.066 5.556 18.7 5.062C18.3363 4.57238 17.8421 4.195 17.274 3.973ZM7.272 5.37C7.492 5.284 7.758 5.259 8.419 5.252C8.701 5.842 9.303 6.25 9.999 6.25H13.999C14.697 6.25 15.299 5.842 15.581 5.252C16.242 5.259 16.508 5.284 16.728 5.37C17.034 5.49 17.3 5.693 17.496 5.957C17.672 6.194 17.775 6.525 18.066 7.592L18.42 8.889C17.382 8.75 16.042 8.75 14.377 8.75H9.622C7.958 8.75 6.618 8.75 5.58 8.889L5.934 7.592C6.224 6.525 6.328 6.194 6.504 5.957C6.69981 5.69311 6.96597 5.48968 7.272 5.37ZM10 4.25C9.9337 4.25 9.87011 4.27634 9.82322 4.32322C9.77634 4.37011 9.75 4.4337 9.75 4.5C9.75 4.5663 9.77634 4.62989 9.82322 4.67678C9.87011 4.72366 9.9337 4.75 10 4.75H14C14.0663 4.75 14.1299 4.72366 14.1768 4.67678C14.2237 4.62989 14.25 4.5663 14.25 4.5C14.25 4.4337 14.2237 4.37011 14.1768 4.32322C14.1299 4.27634 14.0663 4.25 14 4.25H10ZM4.069 11.115C4.348 10.758 4.789 10.518 5.699 10.386C6.63 10.252 7.892 10.25 9.685 10.25H14.315C16.108 10.25 17.369 10.252 18.3 10.386C19.211 10.518 19.652 10.758 19.931 11.116C20.21 11.473 20.336 11.958 20.242 12.874C20.147 13.81 19.843 15.034 19.408 16.774C19.131 17.882 18.938 18.65 18.72 19.224C18.508 19.778 18.301 20.071 18.042 20.274C17.783 20.476 17.448 20.605 16.859 20.676C16.249 20.749 15.459 20.75 14.315 20.75H9.685C8.541 20.75 7.75 20.749 7.141 20.676C6.551 20.606 6.217 20.476 5.958 20.274C5.698 20.071 5.491 19.778 5.28 19.224C5.062 18.65 4.869 17.882 4.591 16.774C4.157 15.034 3.852 13.81 3.757 12.874C3.664 11.958 3.79 11.472 4.069 11.115Z" fill="black"/>
</svg>
