<svg width="24" height="25" viewBox="0 0 24 25" fill="none" xmlns="http://www.w3.org/2000/svg">
<path d="M11.4045 20.4005L11.082 21.461C6.9285 21.0935 4.5 18.26 4.5 15.5V14.75C4.5 14.1533 4.73705 13.581 5.15901 13.159C5.58097 12.7371 6.15326 12.5 6.75 12.5H13.56C12.975 12.9125 12.4605 13.4195 12.042 14H6.75C6.55109 14 6.36032 14.079 6.21967 14.2197C6.07902 14.3603 6 14.5511 6 14.75V15.5C6 17.507 7.8615 19.6775 11.226 19.967C11.28 20.114 11.34 20.258 11.4045 20.4005ZM12 2.75C13.094 2.75 14.1432 3.1846 14.9168 3.95818C15.6904 4.73177 16.125 5.78098 16.125 6.875C16.125 7.96902 15.6904 9.01823 14.9168 9.79182C14.1432 10.5654 13.094 11 12 11C10.906 11 9.85677 10.5654 9.08318 9.79182C8.3096 9.01823 7.875 7.96902 7.875 6.875C7.875 5.78098 8.3096 4.73177 9.08318 3.95818C9.85677 3.1846 10.906 2.75 12 2.75ZM12 4.25C11.3038 4.25 10.6361 4.52656 10.1438 5.01884C9.65156 5.51113 9.375 6.17881 9.375 6.875C9.375 7.57119 9.65156 8.23887 10.1438 8.73116C10.6361 9.22344 11.3038 9.5 12 9.5C12.6962 9.5 13.3639 9.22344 13.8562 8.73116C14.3484 8.23887 14.625 7.57119 14.625 6.875C14.625 6.17881 14.3484 5.51113 13.8562 5.01884C13.3639 4.52656 12.6962 4.25 12 4.25ZM22.5 17.75C22.5002 18.6639 22.2619 19.5621 21.8085 20.3557C21.3552 21.1493 20.7025 21.8107 19.9151 22.2747C19.1276 22.7386 18.2327 22.9889 17.3189 23.0009C16.405 23.0129 15.5038 22.7861 14.7045 22.343L12.6165 22.9775C12.5337 23.0028 12.4457 23.005 12.3617 22.9841C12.2778 22.9632 12.2011 22.9198 12.1399 22.8586C12.0787 22.7974 12.0353 22.7207 12.0144 22.6368C11.9935 22.5528 11.9957 22.4648 12.021 22.382L12.657 20.2955C12.2689 19.5946 12.0464 18.8141 12.0065 18.0139C11.9666 17.2137 12.1104 16.415 12.4269 15.6789C12.7433 14.9428 13.224 14.289 13.8322 13.7674C14.4404 13.2458 15.1599 12.8703 15.9355 12.6697C16.7112 12.4691 17.5225 12.4487 18.3073 12.6101C19.0921 12.7714 19.8295 13.1103 20.4632 13.6006C21.0968 14.091 21.6098 14.7199 21.9628 15.4391C22.3159 16.1583 22.4996 16.9488 22.5 17.75ZM15.75 15.5C15.5511 15.5 15.3603 15.579 15.2197 15.7197C15.079 15.8603 15 16.0511 15 16.25C15 16.4489 15.079 16.6397 15.2197 16.7803C15.3603 16.921 15.5511 17 15.75 17H18.75C18.9489 17 19.1397 16.921 19.2803 16.7803C19.421 16.6397 19.5 16.4489 19.5 16.25C19.5 16.0511 19.421 15.8603 19.2803 15.7197C19.1397 15.579 18.9489 15.5 18.75 15.5H15.75ZM15 19.25C15 19.4489 15.079 19.6397 15.2197 19.7803C15.3603 19.921 15.5511 20 15.75 20H17.25C17.4489 20 17.6397 19.921 17.7803 19.7803C17.921 19.6397 18 19.4489 18 19.25C18 19.0511 17.921 18.8603 17.7803 18.7197C17.6397 18.579 17.4489 18.5 17.25 18.5H15.75C15.5511 18.5 15.3603 18.579 15.2197 18.7197C15.079 18.8603 15 19.0511 15 19.25Z" fill="#0F0F0F"/>
</svg>
