<svg width="20" height="20" viewBox="0 0 20 20" fill="none" xmlns="http://www.w3.org/2000/svg">
<path fill-rule="evenodd" clip-rule="evenodd" d="M8.14841 17.5H11.8517C14.4526 17.5 15.7534 17.5 16.6876 16.8875C17.0907 16.6234 17.4378 16.2824 17.7092 15.8842C18.3334 14.9675 18.3334 13.69 18.3334 11.1367C18.3334 8.58254 18.3334 7.30587 17.7092 6.38921C17.4378 5.99096 17.0907 5.65004 16.6876 5.38587C16.0876 4.99171 15.3359 4.85087 14.1851 4.80087C13.6359 4.80087 13.1634 4.39254 13.0559 3.86337C12.9738 3.47576 12.7603 3.1284 12.4516 2.88C12.1429 2.63159 11.758 2.49738 11.3617 2.50004H8.63841C7.81508 2.50004 7.10591 3.07087 6.94425 3.86337C6.83675 4.39254 6.36425 4.80087 5.81508 4.80087C4.66508 4.85087 3.91341 4.99254 3.31258 5.38587C2.90976 5.65009 2.56289 5.99102 2.29175 6.38921C1.66675 7.30587 1.66675 8.58254 1.66675 11.1367C1.66675 13.69 1.66675 14.9667 2.29091 15.8842C2.56091 16.2809 2.90758 16.6217 3.31258 16.8875C4.24675 17.5 5.54758 17.5 8.14841 17.5ZM10.0001 7.72754C8.08258 7.72754 6.52758 9.25337 6.52758 11.1359C6.52758 13.0192 8.08258 14.5459 10.0001 14.5459C11.9176 14.5459 13.4726 13.0192 13.4726 11.1367C13.4726 9.25337 11.9176 7.72754 10.0001 7.72754ZM10.0001 9.09087C8.85008 9.09087 7.91675 10.0067 7.91675 11.1367C7.91675 12.2659 8.85008 13.1817 10.0001 13.1817C11.1501 13.1817 12.0834 12.2659 12.0834 11.1367C12.0834 10.0067 11.1501 9.09087 10.0001 9.09087ZM13.9351 8.4092C13.9351 8.03254 14.2459 7.72754 14.6301 7.72754H15.5551C15.9384 7.72754 16.2501 8.03254 16.2501 8.4092C16.2483 8.59162 16.1742 8.76588 16.0441 8.89369C15.9139 9.02151 15.7383 9.09243 15.5559 9.09087H14.6301C14.5397 9.09175 14.45 9.07482 14.3662 9.04104C14.2823 9.00725 14.2059 8.95729 14.1414 8.89399C14.0769 8.83069 14.0254 8.7553 13.99 8.67212C13.9546 8.58894 13.936 8.4996 13.9351 8.4092Z" fill="black"/>
</svg>
