<svg width="24" height="24" viewBox="0 0 24 24" fill="none" xmlns="http://www.w3.org/2000/svg">
<path d="M9.00003 10.5C9.00003 10.3011 9.07905 10.1103 9.2197 9.96965C9.36035 9.82899 9.55112 9.74997 9.75003 9.74997H14.25C14.4489 9.74997 14.6397 9.82899 14.7804 9.96965C14.921 10.1103 15 10.3011 15 10.5C15 10.6989 14.921 10.8897 14.7804 11.0303C14.6397 11.171 14.4489 11.25 14.25 11.25H9.75003C9.55112 11.25 9.36035 11.171 9.2197 11.0303C9.07905 10.8897 9.00003 10.6989 9.00003 10.5ZM9.75003 12.75C9.55112 12.75 9.36035 12.829 9.2197 12.9696C9.07905 13.1103 9.00003 13.3011 9.00003 13.5C9.00003 13.6989 9.07905 13.8897 9.2197 14.0303C9.36035 14.171 9.55112 14.25 9.75003 14.25H12.75C12.9489 14.25 13.1397 14.171 13.2804 14.0303C13.421 13.8897 13.5 13.6989 13.5 13.5C13.5 13.3011 13.421 13.1103 13.2804 12.9696C13.1397 12.829 12.9489 12.75 12.75 12.75H9.75003ZM3.00003 12C3.00041 10.0185 3.65467 8.09262 4.8613 6.52097C6.06794 4.94931 7.7595 3.81978 9.67359 3.30759C11.5877 2.79541 13.6173 2.9292 15.4476 3.68821C17.2779 4.44722 18.8065 5.78902 19.7964 7.50547C20.7863 9.22191 21.1821 11.2171 20.9224 13.1814C20.6627 15.1457 19.762 16.9694 18.36 18.3697C16.958 19.7699 15.1332 20.6683 13.1685 20.9255C11.2039 21.1828 9.20923 20.7845 7.49403 19.7925L3.98703 20.9625C3.85746 21.0057 3.71854 21.0128 3.58526 20.9829C3.45198 20.953 3.3294 20.8872 3.23075 20.7927C3.1321 20.6982 3.06112 20.5786 3.02549 20.4468C2.98985 20.3149 2.9909 20.1758 3.02853 20.0445L4.09653 16.308C3.37505 14.9868 2.99795 13.5053 3.00003 12ZM12 4.49997C10.6758 4.49989 9.37516 4.85042 8.23031 5.51593C7.08547 6.18145 6.13723 7.13821 5.48201 8.28897C4.82678 9.43974 4.48792 10.7435 4.49986 12.0676C4.51181 13.3918 4.87414 14.6892 5.55003 15.828C5.60203 15.9159 5.63551 16.0136 5.64841 16.115C5.6613 16.2164 5.65335 16.3193 5.62503 16.4175L4.86153 19.0875L7.34853 18.2595C7.45415 18.2242 7.5663 18.2129 7.67682 18.2264C7.78735 18.2399 7.89349 18.2779 7.98753 18.3375C8.97043 18.9595 10.0846 19.3444 11.2418 19.4617C12.3991 19.5791 13.5678 19.4256 14.6555 19.0135C15.7433 18.6013 16.7203 17.9419 17.5092 17.0871C18.2982 16.2324 18.8776 15.2059 19.2015 14.0887C19.5255 12.9715 19.5852 11.7943 19.3758 10.6501C19.1665 9.50592 18.6938 8.42609 17.9953 7.49599C17.2967 6.56589 16.3914 5.81102 15.3509 5.29105C14.3104 4.77107 13.1632 4.50025 12 4.49997Z" fill="#FCDC2A"/>
</svg>
