<svg width="27" height="28" viewBox="0 0 27 28" fill="none" xmlns="http://www.w3.org/2000/svg">
<g clip-path="url(#clip0_298_2683)">
<path d="M24 4.25H3C2.20435 4.25 1.44129 4.56607 0.87868 5.12868C0.316071 5.69129 0 6.45435 0 7.25L0 14H27V7.25C27 6.45435 26.6839 5.69129 26.1213 5.12868C25.5587 4.56607 24.7956 4.25 24 4.25Z" fill="#DC1F26"/>
<path d="M27 20.75C27 21.5456 26.6839 22.3087 26.1213 22.8713C25.5587 23.4339 24.7956 23.75 24 23.75H3C2.20435 23.75 1.44129 23.4339 0.87868 22.8713C0.316071 22.3087 0 21.5456 0 20.75V14H27V20.75Z" fill="#EEEEEE"/>
</g>
<defs>
<clipPath id="clip0_298_2683">
<rect width="27" height="27" fill="white" transform="translate(0 0.5)"/>
</clipPath>
</defs>
</svg>
