<svg width="25" height="25" viewBox="0 0 25 25" fill="none" xmlns="http://www.w3.org/2000/svg">
<path d="M5.20837 3.125H11.4584C12.2872 3.125 13.082 3.45424 13.6681 4.04029C14.2541 4.62634 14.5834 5.4212 14.5834 6.25V10.4167H13.5417V6.25C13.5417 5.69747 13.3222 5.16756 12.9315 4.77686C12.5408 4.38616 12.0109 4.16667 11.4584 4.16667H5.20837C4.65584 4.16667 4.12594 4.38616 3.73523 4.77686C3.34453 5.16756 3.12504 5.69747 3.12504 6.25V19.7917C3.12504 20.3442 3.34453 20.8741 3.73523 21.2648C4.12594 21.6555 4.65584 21.875 5.20837 21.875H11.4584C12.0109 21.875 12.5408 21.6555 12.9315 21.2648C13.3222 20.8741 13.5417 20.3442 13.5417 19.7917V15.625H14.5834V19.7917C14.5834 20.6205 14.2541 21.4153 13.6681 22.0014C13.082 22.5874 12.2872 22.9167 11.4584 22.9167H5.20837C4.37957 22.9167 3.58472 22.5874 2.99867 22.0014C2.41261 21.4153 2.08337 20.6205 2.08337 19.7917V6.25C2.08337 5.4212 2.41261 4.62634 2.99867 4.04029C3.58472 3.45424 4.37957 3.125 5.20837 3.125ZM8.33337 12.5H20.0521L16.6667 9.11458L17.3542 8.33333L22.0417 13.0208L17.3542 17.7083L16.6667 16.9271L20.0521 13.5417H8.33337V12.5Z" fill="#E41414"/>
</svg>
