<svg width="24" height="25" viewBox="0 0 24 25" fill="none" xmlns="http://www.w3.org/2000/svg">
<path d="M6 10.5V8.50001C6 8.16001 6.028 7.82501 6.083 7.50001M18 10.5V8.50001C18.0001 7.28125 17.629 6.09136 16.9361 5.0887C16.2433 4.08604 15.2615 3.31815 14.1215 2.88721C12.9815 2.45628 11.7372 2.38275 10.5544 2.67639C9.37152 2.97004 8.30613 3.61694 7.5 4.53101M11 22.5H8C5.172 22.5 3.757 22.5 2.879 21.621C2 20.743 2 19.328 2 16.5C2 13.672 2 12.257 2.879 11.379C3.757 10.5 5.172 10.5 8 10.5H16C18.828 10.5 20.243 10.5 21.121 11.379C22 12.257 22 13.672 22 16.5C22 19.328 22 20.743 21.121 21.621C20.243 22.5 18.828 22.5 16 22.5H15" stroke="black" stroke-width="1.5" stroke-linecap="round"/>
</svg>
