<svg width="24" height="25" viewBox="0 0 24 25" fill="none" xmlns="http://www.w3.org/2000/svg">
<path d="M11.962 18.486H18.772C19.0372 18.5008 19.3018 18.4475 19.5405 18.3311C19.7793 18.2147 19.9842 18.0391 20.1358 17.821C20.2874 17.6029 20.3806 17.3496 20.4066 17.0853C20.4325 16.821 20.3903 16.5544 20.284 16.311C19.924 15.223 18.489 13.918 18.489 12.634C18.489 9.78397 18.489 9.03397 17.085 7.35797C16.6301 6.81905 16.0669 6.38191 15.432 6.07497L14.649 5.69497C14.5172 5.61621 14.4035 5.51044 14.3154 5.38463C14.2274 5.25882 14.1669 5.1158 14.138 4.96497C14.0597 4.45738 13.7913 3.99856 13.3873 3.68156C12.9832 3.36457 12.4736 3.21313 11.962 3.25797C11.4596 3.22781 10.964 3.38599 10.572 3.70163C10.18 4.01728 9.91972 4.46772 9.84201 4.96497C9.80682 5.12079 9.73779 5.26696 9.6398 5.39312C9.54182 5.51927 9.41727 5.62233 9.27501 5.69497L8.49201 6.07497C7.85744 6.38203 7.29458 6.81916 6.84001 7.35797C5.43701 9.03397 5.43701 9.78397 5.43701 12.634C5.43701 13.918 4.06701 15.092 3.70701 16.245C3.49001 16.942 3.37001 18.486 5.18701 18.486H11.962Z" stroke="black" stroke-width="1.5" stroke-linecap="round" stroke-linejoin="round"/>
<path d="M15.225 18.486C15.2339 18.9169 15.1555 19.3452 14.9947 19.7451C14.8338 20.1449 14.5938 20.5082 14.289 20.813C13.9842 21.1177 13.621 21.3578 13.2211 21.5186C12.8212 21.6795 12.393 21.7578 11.962 21.749C11.5311 21.7581 11.1027 21.6799 10.7027 21.5192C10.3028 21.3584 9.93949 21.1184 9.63473 20.8135C9.32997 20.5087 9.09005 20.1453 8.92941 19.7453C8.76878 19.3453 8.69075 18.9169 8.70002 18.486" stroke="black" stroke-width="1.5" stroke-linecap="round" stroke-linejoin="round"/>
</svg>
