<svg width="24" height="24" viewBox="0 0 24 24" fill="none" xmlns="http://www.w3.org/2000/svg">
<rect width="24" height="24" fill="white"/>
<path d="M21.9844 10.7232L17.7562 14.4132L19.0228 19.9069C19.0898 20.1941 19.0707 20.4947 18.9678 20.7711C18.8649 21.0475 18.6829 21.2874 18.4444 21.4609C18.2059 21.6344 17.9215 21.7337 17.6269 21.7464C17.3323 21.7592 17.0404 21.6848 16.7878 21.5326L11.9963 18.6263L7.215 21.5326C6.96241 21.6848 6.67055 21.7592 6.37591 21.7464C6.08127 21.7337 5.79693 21.6344 5.55843 21.4609C5.31993 21.2874 5.13786 21.0475 5.03498 20.7711C4.9321 20.4947 4.91298 20.1941 4.98 19.9069L6.24469 14.4188L2.01563 10.7232C1.79195 10.5303 1.6302 10.2756 1.55068 9.99113C1.47115 9.70666 1.47739 9.40504 1.5686 9.1241C1.65981 8.84315 1.83194 8.59539 2.0634 8.41188C2.29486 8.22838 2.57535 8.11729 2.86969 8.09256L8.44406 7.60974L10.62 2.41974C10.7336 2.14742 10.9253 1.9148 11.1709 1.75117C11.4164 1.58755 11.7049 1.50024 12 1.50024C12.2951 1.50024 12.5836 1.58755 12.8291 1.75117C13.0747 1.9148 13.2664 2.14742 13.38 2.41974L15.5625 7.60974L21.135 8.09256C21.4293 8.11729 21.7098 8.22838 21.9413 8.41188C22.1727 8.59539 22.3449 8.84315 22.4361 9.1241C22.5273 9.40504 22.5335 9.70666 22.454 9.99113C22.3745 10.2756 22.2127 10.5303 21.9891 10.7232H21.9844Z" fill="#FCDC2A"/>
</svg>
