<svg width="26" height="26" viewBox="0 0 26 26" fill="none" xmlns="http://www.w3.org/2000/svg">
<path d="M9.47917 14.0834C9.47917 13.8679 9.39356 13.6612 9.24119 13.5089C9.08882 13.3565 8.88215 13.2709 8.66667 13.2709C8.45118 13.2709 8.24452 13.3565 8.09214 13.5089C7.93977 13.6612 7.85417 13.8679 7.85417 14.0834V18.4167C7.85417 18.6322 7.93977 18.8389 8.09214 18.9912C8.24452 19.1436 8.45118 19.2292 8.66667 19.2292C8.88215 19.2292 9.08882 19.1436 9.24119 18.9912C9.39356 18.8389 9.47917 18.6322 9.47917 18.4167V14.0834ZM17.3333 13.2709C17.5488 13.2709 17.7555 13.3565 17.9079 13.5089C18.0602 13.6612 18.1458 13.8679 18.1458 14.0834V18.4167C18.1458 18.6322 18.0602 18.8389 17.9079 18.9912C17.7555 19.1436 17.5488 19.2292 17.3333 19.2292C17.1178 19.2292 16.9112 19.1436 16.7588 18.9912C16.6064 18.8389 16.5208 18.6322 16.5208 18.4167V14.0834C16.5208 13.8679 16.6064 13.6612 16.7588 13.5089C16.9112 13.3565 17.1178 13.2709 17.3333 13.2709ZM13.8125 14.0834C13.8125 13.8679 13.7269 13.6612 13.5745 13.5089C13.4222 13.3565 13.2155 13.2709 13 13.2709C12.7845 13.2709 12.5778 13.3565 12.4255 13.5089C12.2731 13.6612 12.1875 13.8679 12.1875 14.0834V18.4167C12.1875 18.6322 12.2731 18.8389 12.4255 18.9912C12.5778 19.1436 12.7845 19.2292 13 19.2292C13.2155 19.2292 13.4222 19.1436 13.5745 18.9912C13.7269 18.8389 13.8125 18.6322 13.8125 18.4167V14.0834Z" fill="black"/>
<path fill-rule="evenodd" clip-rule="evenodd" d="M18.7135 3.76242C18.1978 3.56092 17.6204 3.52733 16.8805 3.52192C16.7268 3.19743 16.4842 2.92325 16.1808 2.73127C15.8774 2.5393 15.5257 2.43742 15.1667 2.4375H10.8333C10.4744 2.43732 10.1228 2.53904 9.81943 2.73081C9.51604 2.92259 9.27332 3.19655 9.1195 3.52083C8.3785 3.52733 7.80217 3.56092 7.2865 3.76242C6.67092 4.00321 6.13556 4.41243 5.74167 4.94325C5.34408 5.47733 5.15667 6.16417 4.901 7.10775L4.22067 9.60267C3.79408 9.81705 3.42038 10.1234 3.1265 10.4997C2.45267 11.3631 2.3335 12.3912 2.45375 13.5698C2.56967 14.7138 2.93042 16.1547 3.38108 17.9573L3.40925 18.0733C3.69525 19.2129 3.926 20.1392 4.20117 20.8618C4.48825 21.6158 4.85333 22.2332 5.4535 22.7023C6.05475 23.1714 6.74267 23.374 7.54325 23.4715C8.31025 23.5625 9.26575 23.5625 10.4412 23.5625H15.5588C16.7342 23.5625 17.6887 23.5625 18.4567 23.4704C19.2584 23.3751 19.9452 23.1714 20.5454 22.7013C21.1467 22.2333 21.5107 21.6158 21.7977 20.8618C22.074 20.1392 22.3047 19.2129 22.5897 18.0722L22.6189 17.9584C23.0696 16.1547 23.4292 14.7138 23.5462 13.5709C23.6654 12.3901 23.5462 11.3631 22.8724 10.4997C22.5788 10.1235 22.2055 9.81719 21.7793 9.60267L21.099 7.10775C20.8422 6.16417 20.6548 5.47733 20.2583 4.94217C19.8643 4.41175 19.3289 4.00291 18.7135 3.76242ZM7.878 5.27583C8.11633 5.18267 8.4045 5.15558 9.12058 5.148C9.42608 5.78717 10.0782 6.22917 10.8322 6.22917H15.1656C15.9217 6.22917 16.5739 5.78717 16.8794 5.148C17.5955 5.15558 17.8837 5.18267 18.122 5.27583C18.4535 5.40583 18.7417 5.62575 18.954 5.91175C19.1447 6.1685 19.2562 6.52708 19.5715 7.683L19.955 9.08808C18.8305 8.9375 17.3788 8.9375 15.5751 8.9375H10.4238C8.62116 8.9375 7.1695 8.9375 6.045 9.08808L6.4285 7.683C6.74267 6.52708 6.85533 6.1685 7.046 5.91175C7.25813 5.62587 7.54646 5.40549 7.878 5.27583ZM10.8333 4.0625C10.7615 4.0625 10.6926 4.09103 10.6418 4.14183C10.591 4.19262 10.5625 4.2615 10.5625 4.33333C10.5625 4.40516 10.591 4.47405 10.6418 4.52484C10.6926 4.57563 10.7615 4.60417 10.8333 4.60417H15.1667C15.2385 4.60417 15.3074 4.57563 15.3582 4.52484C15.409 4.47405 15.4375 4.40516 15.4375 4.33333C15.4375 4.2615 15.409 4.19262 15.3582 4.14183C15.3074 4.09103 15.2385 4.0625 15.1667 4.0625H10.8333ZM4.40808 11.4996C4.71033 11.1128 5.18808 10.8528 6.17392 10.7098C7.1825 10.5647 8.54967 10.5625 10.4921 10.5625H15.5079C17.4503 10.5625 18.8164 10.5647 19.825 10.7098C20.8119 10.8528 21.2897 11.1128 21.5919 11.5007C21.8942 11.8874 22.0307 12.4128 21.9288 13.4052C21.8259 14.4192 21.4966 15.7452 21.0253 17.6302C20.7253 18.8305 20.5162 19.6625 20.28 20.2843C20.0503 20.8845 19.8261 21.2019 19.5455 21.4218C19.2649 21.6407 18.902 21.7804 18.2639 21.8573C17.6031 21.9364 16.7472 21.9375 15.5079 21.9375H10.4921C9.25275 21.9375 8.39583 21.9364 7.73608 21.8573C7.09692 21.7815 6.73508 21.6407 6.4545 21.4218C6.17283 21.2019 5.94858 20.8845 5.72 20.2843C5.48383 19.6625 5.27475 18.8305 4.97358 17.6302C4.50342 15.7452 4.173 14.4192 4.07008 13.4052C3.96933 12.4128 4.10583 11.8863 4.40808 11.4996Z" fill="black"/>
</svg>
