<svg width="26" height="26" viewBox="0 0 26 26" fill="none" xmlns="http://www.w3.org/2000/svg">
<path d="M9.75 11.375C9.75 11.1595 9.8356 10.9528 9.98798 10.8004C10.1403 10.6481 10.347 10.5625 10.5625 10.5625H15.4375C15.653 10.5625 15.8597 10.6481 16.012 10.8004C16.1644 10.9528 16.25 11.1595 16.25 11.375C16.25 11.5904 16.1644 11.7971 16.012 11.9495C15.8597 12.1018 15.653 12.1875 15.4375 12.1875H10.5625C10.347 12.1875 10.1403 12.1018 9.98798 11.9495C9.8356 11.7971 9.75 11.5904 9.75 11.375ZM10.5625 13.8125C10.347 13.8125 10.1403 13.8981 9.98798 14.0504C9.8356 14.2028 9.75 14.4095 9.75 14.625C9.75 14.8404 9.8356 15.0471 9.98798 15.1995C10.1403 15.3519 10.347 15.4375 10.5625 15.4375H13.8125C14.028 15.4375 14.2347 15.3519 14.387 15.1995C14.5394 15.0471 14.625 14.8404 14.625 14.625C14.625 14.4095 14.5394 14.2028 14.387 14.0504C14.2347 13.8981 14.028 13.8125 13.8125 13.8125H10.5625ZM3.25 13C3.25041 10.8534 3.95919 8.76698 5.26638 7.06436C6.57357 5.36173 8.4061 4.13808 10.4797 3.58321C12.5533 3.02834 14.752 3.17328 16.7349 3.99554C18.7177 4.8178 20.3737 6.27142 21.4461 8.1309C22.5185 9.99039 22.9472 12.1518 22.6659 14.2798C22.3845 16.4078 21.4088 18.3835 19.89 19.9004C18.3712 21.4173 16.3943 22.3906 14.2659 22.6693C12.1375 22.948 9.97664 22.5165 8.1185 21.4418L4.31925 22.7093C4.17889 22.7562 4.02839 22.7638 3.884 22.7314C3.73961 22.699 3.60682 22.6278 3.49995 22.5254C3.39307 22.4231 3.31619 22.2935 3.27758 22.1506C3.23897 22.0078 3.24011 21.8571 3.28088 21.7148L4.43788 17.667C3.65628 16.2357 3.24775 14.6307 3.25 13ZM13 4.87495C11.5654 4.87486 10.1564 5.2546 8.91614 5.97557C7.67589 6.69654 6.64864 7.73304 5.93881 8.9797C5.22898 10.2264 4.86188 11.6387 4.87482 13.0733C4.88776 14.5078 5.28029 15.9133 6.0125 17.147C6.06884 17.2423 6.1051 17.3481 6.11907 17.4579C6.13305 17.5677 6.12443 17.6792 6.09375 17.7856L5.26663 20.6781L7.96088 19.7811C8.0753 19.7429 8.19679 19.7307 8.31653 19.7453C8.43627 19.7599 8.55125 19.801 8.65313 19.8656C9.71794 20.5395 10.9249 20.9564 12.1786 21.0835C13.4323 21.2106 14.6984 21.0444 15.8768 20.5979C17.0552 20.1514 18.1136 19.437 18.9683 18.511C19.823 17.5851 20.4507 16.473 20.8016 15.2628C21.1526 14.0525 21.2172 12.7772 20.9904 11.5376C20.7636 10.2981 20.2516 9.12824 19.4949 8.12064C18.7381 7.11303 17.7574 6.29526 16.6301 5.73195C15.5029 5.16864 14.2601 4.87525 13 4.87495Z" fill="black"/>
</svg>
