<svg width="24" height="25" viewBox="0 0 24 25" fill="none" xmlns="http://www.w3.org/2000/svg">
<path d="M12 4.10002C13.1031 4.10002 14.1954 4.3173 15.2146 4.73944C16.2337 5.16158 17.1597 5.78032 17.9397 6.56033C18.7197 7.34034 19.3385 8.26635 19.7606 9.28548C20.1828 10.3046 20.4 11.3969 20.4 12.5C20.4 13.6031 20.1828 14.6954 19.7606 15.7146C19.3385 16.7337 18.7197 17.6597 17.9397 18.4397C17.1597 19.2197 16.2337 19.8385 15.2146 20.2606C14.1954 20.6828 13.1031 20.9 12 20.9V4.10002ZM12 2.90002C9.45395 2.90002 7.01215 3.91145 5.2118 5.7118C3.41145 7.51215 2.40002 9.95395 2.40002 12.5C2.40002 15.0461 3.41145 17.4879 5.2118 19.2882C7.01215 21.0886 9.45395 22.1 12 22.1C14.5461 22.1 16.9879 21.0886 18.7882 19.2882C20.5886 17.4879 21.6 15.0461 21.6 12.5C21.6 9.95395 20.5886 7.51215 18.7882 5.7118C16.9879 3.91145 14.5461 2.90002 12 2.90002Z" fill="black"/>
</svg>
