<svg width="31" height="30" viewBox="0 0 31 30" fill="none" xmlns="http://www.w3.org/2000/svg">
<path d="M22.2976 27.4214H8.70264C7.87384 27.4214 7.07898 27.0921 6.49293 26.5061C5.90688 25.92 5.57764 25.1252 5.57764 24.2964V23.2626C5.57764 18.3014 10.0289 14.2626 15.5001 14.2626C20.9714 14.2626 25.4226 18.2989 25.4226 23.2626V24.2964C25.4226 25.1252 25.0934 25.92 24.5073 26.5061C23.9213 27.0921 23.1264 27.4214 22.2976 27.4214ZM15.5001 15.5151C10.7176 15.5151 6.82764 18.9901 6.82764 23.2651V24.2989C6.82764 24.7961 7.02518 25.2731 7.37681 25.6247C7.72844 25.9763 8.20536 26.1739 8.70264 26.1739H22.2976C22.7949 26.1739 23.2718 25.9763 23.6235 25.6247C23.9751 25.2731 24.1726 24.7961 24.1726 24.2989V23.2626C24.1726 18.9901 20.2826 15.5151 15.5001 15.5151ZM15.5001 12.3889C14.53 12.3891 13.5815 12.1016 12.7747 11.5628C11.9679 11.024 11.3391 10.258 10.9676 9.36179C10.5962 8.46554 10.4989 7.47927 10.688 6.52771C10.8771 5.57615 11.3442 4.70204 12.0301 4.01594C12.716 3.32984 13.59 2.86256 14.5415 2.6732C15.493 2.48384 16.4793 2.5809 17.3757 2.95211C18.272 3.32332 19.0381 3.95201 19.5772 4.75866C20.1162 5.56531 20.4039 6.51369 20.4039 7.48386C20.4029 8.78423 19.886 10.0311 18.9666 10.9507C18.0472 11.8703 16.8005 12.3875 15.5001 12.3889ZM15.5001 3.83011C14.7771 3.82986 14.0703 4.04405 13.4691 4.44557C12.8678 4.84709 12.3991 5.41791 12.1223 6.08582C11.8456 6.75374 11.7731 7.48874 11.9141 8.19786C12.055 8.90698 12.4032 9.55835 12.9144 10.0696C13.4256 10.5808 14.077 10.929 14.7861 11.0699C15.4953 11.2109 16.2303 11.1384 16.8982 10.8616C17.5661 10.5849 18.1369 10.1162 18.5384 9.51494C18.9399 8.91369 19.1541 8.20686 19.1539 7.48386C19.1529 6.51513 18.7676 5.58636 18.0826 4.90136C17.3976 4.21637 16.4689 3.8311 15.5001 3.83011Z" fill="black"/>
</svg>
