<svg width="25" height="24" viewBox="0 0 25 24" fill="none" xmlns="http://www.w3.org/2000/svg">
<path d="M13.3541 3.50009C13.269 3.34833 13.145 3.22199 12.9949 3.13405C12.8448 3.04611 12.674 2.99976 12.5001 2.99976C12.3261 2.99976 12.1553 3.04611 12.0052 3.13405C11.8551 3.22199 11.7311 3.34833 11.6461 3.50009C10.809 5.01766 10.1202 6.61237 9.58905 8.26209C9.45005 8.69309 9.03805 8.99209 8.56605 9.00509C7.13527 9.04269 5.70914 9.18474 4.29905 9.43009C3.52505 9.56609 3.23405 10.4481 3.78405 10.9861C4.85075 12.0297 5.99029 12.9961 7.19405 13.8781C7.56105 14.1471 7.71205 14.6081 7.57205 15.0301C7.03764 16.6328 6.65595 18.2825 6.43205 19.9571C6.33205 20.7121 7.14005 21.2451 7.84205 20.8851C9.23411 20.1713 10.5652 19.3446 11.8221 18.4131C12.0188 18.2691 12.2563 18.1915 12.5001 18.1915C12.7439 18.1915 12.9813 18.2691 13.1781 18.4131C14.4346 19.3449 15.7658 20.1717 17.1581 20.8851C17.8591 21.2451 18.6681 20.7121 18.5681 19.9571C18.3442 18.2822 17.9625 16.6322 17.4281 15.0291C17.2881 14.6091 17.4381 14.1471 17.8061 13.8781C19.0098 12.9961 20.1493 12.0296 21.2161 10.9861C21.7661 10.4481 21.4761 9.56609 20.7011 9.43009C19.2911 9.18348 17.8649 9.04142 16.4341 9.00509C16.2077 9.00192 15.9879 8.92881 15.8047 8.79579C15.6216 8.66277 15.4841 8.47634 15.4111 8.26209C14.8799 6.61272 14.191 5.01735 13.3541 3.50009Z" stroke="black" stroke-width="1.5" stroke-linecap="round" stroke-linejoin="round"/>
</svg>
